<svg width="26" height="24" viewBox="0 0 26 24" fill="none" xmlns="http://www.w3.org/2000/svg">
<path d="M12.25 2.028C15.256 2.028 15.608 2.041 16.796 2.095C17.896 2.144 18.489 2.327 18.886 2.483C19.414 2.689 19.789 2.93 20.182 3.323C20.575 3.716 20.82 4.091 21.022 4.618C21.173 5.015 21.361 5.609 21.41 6.708C21.463 7.896 21.477 8.248 21.477 11.254C21.477 14.26 21.463 14.613 21.41 15.801C21.36 16.9 21.178 17.494 21.021 17.891C20.8411 18.3799 20.5541 18.8224 20.181 19.186C19.8189 19.5604 19.3764 19.8477 18.887 20.026C18.489 20.178 17.895 20.366 16.797 20.414C15.608 20.468 15.256 20.481 12.25 20.481C9.244 20.481 8.892 20.468 7.704 20.414C6.604 20.365 6.011 20.182 5.614 20.026C5.1247 19.8463 4.68187 19.5592 4.318 19.186C3.94344 18.8236 3.65619 18.3808 3.478 17.891C3.327 17.494 3.139 16.9 3.09 15.801C3.037 14.613 3.023 14.261 3.023 11.255C3.023 8.249 3.037 7.896 3.09 6.708C3.14 5.609 3.322 5.015 3.479 4.618C3.684 4.091 3.925 3.716 4.319 3.323C4.68111 2.94856 5.12359 2.66133 5.613 2.483C6.011 2.331 6.605 2.143 7.703 2.095C8.892 2.037 9.249 2.028 12.25 2.028ZM12.25 0C9.195 0 8.811 0.013 7.61 0.067C6.413 0.121 5.596 0.313 4.88 0.59C4.12889 0.872376 3.44889 1.31615 2.888 1.89C2.31665 2.45256 1.87325 3.13164 1.588 3.881C1.314 4.596 1.122 5.413 1.068 6.614C1.013 7.811 1 8.195 1 11.25C1 14.305 1.013 14.689 1.067 15.89C1.121 17.087 1.313 17.904 1.59 18.623C1.87238 19.3741 2.31615 20.0541 2.89 20.615C3.45254 21.1864 4.13163 21.6298 4.881 21.915C5.596 22.192 6.413 22.384 7.614 22.438C8.816 22.491 9.195 22.505 12.254 22.505C15.314 22.505 15.694 22.491 16.894 22.438C18.092 22.384 18.909 22.192 19.628 21.915C20.3791 21.6327 21.0591 21.1889 21.62 20.615C22.1913 20.0524 22.6347 19.3734 22.92 18.624C23.196 17.909 23.388 17.092 23.442 15.89C23.495 14.689 23.509 14.31 23.509 11.25C23.509 8.19 23.495 7.811 23.442 6.61C23.388 5.413 23.196 4.596 22.919 3.877C22.6366 3.12589 22.1929 2.44589 21.619 1.885C21.0564 1.31368 20.3773 0.87028 19.628 0.585C18.913 0.308 18.096 0.116 16.895 0.063C15.689 0.013 15.305 0 12.25 0Z" fill="black" fill-opacity="0.9"/>
<path d="M12.2497 5.47503C10.7168 5.4753 9.24669 6.08451 8.16292 7.16866C7.07915 8.25281 6.47044 9.72308 6.4707 11.256C6.47097 12.789 7.08019 14.259 8.16433 15.3428C9.24848 16.4266 10.7188 17.0353 12.2517 17.035C13.0107 17.0349 13.7623 16.8853 14.4635 16.5947C15.1647 16.3041 15.8019 15.8782 16.3385 15.3414C16.8751 14.8046 17.3008 14.1673 17.5911 13.466C17.8815 12.7647 18.0308 12.0131 18.0307 11.254C18.0306 10.495 17.8809 9.74341 17.5903 9.0422C17.2998 8.34099 16.8739 7.70388 16.3371 7.16725C15.8003 6.63062 15.163 6.20498 14.4617 5.91462C13.7604 5.62427 13.0087 5.4749 12.2497 5.47503ZM12.2497 15.001C11.2549 15.001 10.3008 14.6058 9.59735 13.9024C8.8939 13.1989 8.4987 12.2449 8.4987 11.25C8.4987 10.2552 8.8939 9.30112 9.59735 8.59767C10.3008 7.89423 11.2549 7.49903 12.2497 7.49903C13.2445 7.49903 14.1986 7.89423 14.9021 8.59767C15.6055 9.30112 16.0007 10.2552 16.0007 11.25C16.0007 12.2449 15.6055 13.1989 14.9021 13.9024C14.1986 14.6058 13.2445 15.001 12.2497 15.001ZM18.2567 6.59203C18.4369 6.59694 18.6162 6.56569 18.7841 6.50013C18.952 6.43456 19.1051 6.33602 19.2342 6.21032C19.3634 6.08461 19.4661 5.93429 19.5362 5.76824C19.6063 5.60219 19.6424 5.42378 19.6424 5.24353C19.6424 5.06329 19.6063 4.88487 19.5362 4.71882C19.4661 4.55277 19.3634 4.40245 19.2342 4.27675C19.1051 4.15104 18.952 4.0525 18.7841 3.98694C18.6162 3.92137 18.4369 3.89012 18.2567 3.89503C17.9054 3.9046 17.5717 4.05087 17.3266 4.30272C17.0816 4.55457 16.9444 4.89211 16.9444 5.24353C16.9444 5.59495 17.0816 5.9325 17.3266 6.18434C17.5717 6.43619 17.9054 6.58246 18.2567 6.59203Z" fill="black" fill-opacity="0.9"/>
</svg>
