<svg width="25" height="24" viewBox="0 0 25 24" fill="none" xmlns="http://www.w3.org/2000/svg">
<path fill-rule="evenodd" clip-rule="evenodd" d="M6.95 3.773C6.922 2.483 5.995 1.5 4.49 1.5C2.984 1.5 2 2.483 2 3.773C2 5.036 2.955 6.047 4.432 6.047H4.46C5.995 6.047 6.95 5.036 6.95 3.773ZM6.66 7.843H2.26V21H6.66V7.843ZM17.463 7.534C20.358 7.534 22.529 9.414 22.529 13.456V21H18.129V13.961C18.129 12.193 17.492 10.986 15.899 10.986C14.684 10.986 13.959 11.8 13.641 12.586C13.525 12.867 13.496 13.259 13.496 13.652V21H9.096C9.096 21 9.154 9.078 9.096 7.843H13.496V9.707C14.081 8.811 15.126 7.534 17.463 7.534Z" fill="black" fill-opacity="0.9"/>
</svg>
