<svg width="25" height="24" viewBox="0 0 25 24" fill="none" xmlns="http://www.w3.org/2000/svg">
<path d="M10.093 12C9.491 12 9 12.491 9 13.093C9 13.695 9.491 14.186 10.093 14.186C10.695 14.186 11.186 13.695 11.186 13.093C11.186 12.491 10.695 12 10.093 12ZM12.512 16.777C12.93 16.777 14.355 16.728 15.104 15.979C15.214 15.869 15.214 15.697 15.128 15.574C15.074 15.5209 15.0012 15.4912 14.9255 15.4912C14.8498 15.4912 14.777 15.5209 14.723 15.574C14.244 16.04 13.249 16.212 12.525 16.212C11.8 16.212 10.793 16.04 10.327 15.574C10.2729 15.5206 10.2 15.4907 10.124 15.4907C10.048 15.4907 9.97508 15.5206 9.921 15.574C9.86793 15.628 9.83819 15.7008 9.83819 15.7765C9.83819 15.8522 9.86793 15.925 9.921 15.979C10.658 16.716 12.095 16.777 12.512 16.777ZM13.814 13.093C13.814 13.695 14.306 14.186 14.907 14.186C15.509 14.186 16 13.695 16 13.093C16 12.491 15.51 12 14.907 12C14.306 12 13.814 12.491 13.814 13.093Z" fill="black" fill-opacity="0.9"/>
<path fill-rule="evenodd" clip-rule="evenodd" d="M23 12C23 17.799 18.299 22.5 12.5 22.5C6.701 22.5 2 17.799 2 12C2 6.201 6.701 1.5 12.5 1.5C18.299 1.5 23 6.201 23 12ZM17.965 10.465C18.813 10.465 19.5 11.153 19.5 12C19.4977 12.2941 19.4138 12.5818 19.2577 12.831C19.1017 13.0803 18.8795 13.2814 18.616 13.412C18.641 13.56 18.653 13.707 18.653 13.867C18.653 16.224 15.914 18.128 12.525 18.128C9.135 18.128 6.397 16.224 6.397 13.867C6.397 13.707 6.409 13.547 6.434 13.4C6.1149 13.2554 5.85483 13.006 5.69692 12.6933C5.53902 12.3805 5.49277 12.0232 5.56585 11.6806C5.63893 11.3379 5.82695 11.0306 6.09871 10.8095C6.37048 10.5884 6.70966 10.4668 7.06 10.465C7.465 10.465 7.846 10.637 8.116 10.895C9.172 10.121 10.634 9.642 12.266 9.593L13.041 5.933C13.0594 5.86275 13.1028 5.80161 13.163 5.761C13.2264 5.72423 13.3009 5.71146 13.373 5.725L15.914 6.265C16.086 5.896 16.454 5.651 16.884 5.651C17.486 5.651 17.977 6.142 17.977 6.744C17.977 7.346 17.487 7.837 16.884 7.837C16.295 7.837 15.816 7.37 15.791 6.793L13.52 6.314L12.82 9.593C14.416 9.654 15.865 10.146 16.909 10.895C17.179 10.625 17.548 10.465 17.965 10.465Z" fill="black" fill-opacity="0.9"/>
</svg>
