<svg width="25" height="24" viewBox="0 0 25 24" fill="none" xmlns="http://www.w3.org/2000/svg">
<path d="M21.7111 6.39276C20.4111 6.35276 19.231 5.72976 18.342 4.89676C17.8561 4.43399 17.4712 3.87575 17.2113 3.25708C16.9514 2.63842 16.8223 1.97271 16.8321 1.30176H13.21V15.2548C13.21 17.5338 11.844 18.8768 10.166 18.8768C9.721 18.8816 9.2803 18.7888 8.87496 18.605C8.46961 18.4212 8.10948 18.1508 7.81989 17.8128C7.53031 17.4748 7.31831 17.0775 7.19881 16.6487C7.07931 16.22 7.05523 15.7703 7.12824 15.3312C7.20125 14.8922 7.36959 14.4745 7.62142 14.1075C7.87324 13.7405 8.20243 13.4332 8.58582 13.2071C8.96921 12.9811 9.39748 12.8417 9.8405 12.799C10.2835 12.7563 10.7305 12.8111 11.15 12.9598V9.27576C10.8269 9.20475 10.4969 9.16987 10.166 9.17176C8.84767 9.17116 7.55872 9.56158 6.46225 10.2936C5.36578 11.0257 4.51105 12.0664 4.00616 13.2843C3.50127 14.5022 3.36891 15.8425 3.62582 17.1356C3.88274 18.4287 4.51738 19.6165 5.44948 20.5489C6.38157 21.4813 7.56925 22.1163 8.86228 22.3736C10.1553 22.6309 11.4956 22.4989 12.7136 21.9944C13.9317 21.4899 14.9727 20.6355 15.7051 19.5392C16.4374 18.443 16.8282 17.1541 16.828 15.8358V8.32576C18.232 9.29676 19.909 9.75576 21.699 9.78776L21.7111 6.39276Z" fill="black" fill-opacity="0.9"/>
</svg>
