<svg width="25" height="24" viewBox="0 0 25 24" fill="none" xmlns="http://www.w3.org/2000/svg">
<path d="M12.691 7.8168L12.739 8.5998L11.943 8.5038C9.048 8.1368 6.518 6.8898 4.37 4.7958L3.32 3.7568L3.05 4.5238C2.477 6.2338 2.843 8.0408 4.036 9.2548C4.673 9.9268 4.53 10.0228 3.432 9.6228C3.05 9.4948 2.716 9.3988 2.684 9.4468C2.573 9.5588 2.954 11.0138 3.257 11.5888C3.67 12.3888 4.514 13.1708 5.437 13.6348L6.216 14.0018L5.293 14.0178C4.403 14.0178 4.37 14.0338 4.466 14.3698C4.784 15.4098 6.041 16.5118 7.441 16.9908L8.427 17.3268L7.568 17.8388C6.26764 18.5817 4.80227 18.988 3.305 19.0208C2.589 19.0368 2 19.1008 2 19.1488C2 19.3088 3.94 20.2038 5.07 20.5558C8.46 21.5948 12.484 21.1468 15.507 19.3728C17.655 18.1098 19.802 15.6008 20.805 13.1708C21.345 11.8768 21.887 9.5108 21.887 8.3758C21.887 7.6408 21.934 7.5458 22.825 6.6658C23.35 6.1548 23.843 5.5958 23.939 5.4358C24.098 5.1318 24.082 5.1318 23.271 5.4028C21.918 5.8828 21.727 5.8188 22.396 5.0998C22.889 4.5878 23.477 3.6608 23.477 3.3898C23.477 3.3408 23.239 3.4208 22.968 3.5648C22.682 3.7248 22.046 3.9648 21.568 4.1088L20.709 4.3798L19.929 3.8528C19.5 3.5648 18.895 3.2458 18.577 3.1498C17.766 2.9258 16.525 2.9578 15.793 3.2138C13.805 3.9328 12.548 5.7868 12.691 7.8168Z" fill="black" fill-opacity="0.9"/>
</svg>
