<svg width="25" height="24" viewBox="0 0 25 24" fill="none" xmlns="http://www.w3.org/2000/svg">
<mask id="mask0_739_459" style="mask-type:luminance" maskUnits="userSpaceOnUse" x="0" y="0" width="25" height="24">
<path d="M0.5 0H24.5V24H0.5V0Z" fill="white"/>
</mask>
<g mask="url(#mask0_739_459)">
<path d="M24.006 6.52939C23.8686 6.02285 23.6009 5.5611 23.2297 5.19006C22.8585 4.81901 22.3966 4.5516 21.89 4.41439C20.012 3.90039 12.5 3.90039 12.5 3.90039C12.5 3.90039 4.988 3.90039 3.11 4.39439C2.6038 4.5389 2.14329 4.8112 1.77272 5.18509C1.40215 5.55899 1.13398 6.02192 0.994 6.52939C0.5 8.40739 0.5 12.3024 0.5 12.3024C0.5 12.3024 0.5 16.2164 0.994 18.0744C1.13129 18.5811 1.39886 19.0431 1.77009 19.4143C2.14132 19.7855 2.60327 20.0531 3.11 20.1904C5.007 20.7044 12.5 20.7044 12.5 20.7044C12.5 20.7044 20.012 20.7044 21.89 20.2104C22.3966 20.0732 22.8585 19.8058 23.2297 19.4347C23.6009 19.0637 23.8686 18.6019 24.006 18.0954C24.5 16.2164 24.5 12.3204 24.5 12.3204C24.5 12.3204 24.52 8.40739 24.006 6.52939ZM10.108 15.8994V8.70439L16.355 12.3034L10.108 15.8994Z" fill="black" fill-opacity="0.9"/>
</g>
</svg>
