<?xml version="1.0" encoding="utf-8"?>
<!-- Generator: Adobe Illustrator 17.1.0, SVG Export Plug-In . SVG Version: 6.00 Build 0)  -->
<!DOCTYPE svg PUBLIC "-//W3C//DTD SVG 1.1//EN" "http://www.w3.org/Graphics/SVG/1.1/DTD/svg11.dtd">
<svg version="1.1" id="レイヤー_1" xmlns="http://www.w3.org/2000/svg" xmlns:xlink="http://www.w3.org/1999/xlink" x="0px"
	 y="0px" viewBox="0 0 398.2 433" enable-background="new 0 0 398.2 433" xml:space="preserve">
<g>
	<path fill="#FCCB00" d="M198.6,74.9c-0.1,0-0.2,0-0.3,0c-0.1,0-0.2,0-0.3,0c-67.5,0-122.1,54.7-122.1,122.1
		c0,38.8,17,77.9,42.5,106.3c5.8,6.5,12,14,15.9,22.4h10.4h17.8h71.8h17.6h10.6c4-8.4,10.1-16,15.9-22.4
		c25.5-28.4,42.5-67.6,42.5-106.3C320.8,129.6,266.1,74.9,198.6,74.9z"/>
	<path fill="#F0C100" d="M136.4,91.6c-36.2,21.2-60.6,60.5-60.6,105.5c0,38.8,17,77.9,42.5,106.3c5.8,6.5,12,14,15.9,22.4h10.4h17.8
		h71.8l0,0C155,259.7,120.2,179.7,136.4,91.6z"/>
	<path fill="#9D9D9E" d="M162.4,325.8h-28.2c2.4,5,4,10.3,4.2,15.8v4.6c0,4.6,3.7,8.3,8.3,8.3h44.8h13.6h27.7v-28.7
		C232.3,325.9,163.3,326,162.4,325.8z"/>
	<path fill="#868687" d="M234.2,325.8c-0.4,0.1-0.9,0-1.3,0v28.7h17.1c4.6,0,8.3-3.7,8.3-8.3v-5.6c0.4-5.1,1.9-10.1,4.2-14.8H234.2z
		"/>
	<path fill="#FFFFFF" d="M214.4,109.1c-4.8-0.6-9.2,2.7-9.9,7.5c-0.7,4.8,2.7,9.2,7.5,9.9c34,4.7,59.6,34.1,59.6,68.5
		c0,4.8,3.9,8.8,8.8,8.8c4.8,0,8.8-3.9,8.8-8.8C289.2,151.8,257,114.9,214.4,109.1z"/>
	<path fill="#9D9D9E" d="M146.7,363c-4.6,0-8.3,3.7-8.3,8.3c0,4.6,3.7,8.3,8.3,8.3h86.1V363H146.7z"/>
	<path fill="#868687" d="M248.8,363h-15.9v16.6h15.9c4.6,0,8.3-3.7,8.3-8.3C257.1,366.8,253.4,363,248.8,363z"/>
	<path fill="#9D9D9E" d="M146.7,388.1c-4.6,0-8.3,3.7-8.3,8.3c0,4.6,3.7,8.3,8.3,8.3h86.1v-16.6H146.7z"/>
	<path fill="#868687" d="M248.8,388.1h-15.9v16.6h15.9c4.6,0,8.3-3.7,8.3-8.3C257.1,391.8,253.4,388.1,248.8,388.1z"/>
	<path fill="#9D9D9E" d="M197.2,413.4h-24.3c-4,0-6.1,4.6-3.6,7.7c4.5,5.4,13,11.6,27.9,11.9v0c0.2,0,0.4,0,0.5,0c0.2,0,0.4,0,0.5,0
		v0c14.9-0.3,23.4-6.6,27.9-11.9c2.6-3,0.4-7.7-3.6-7.7h-24.3H197.2z"/>
	<path fill="#FFE500" d="M197.6,52.8c6.6,0,11.9-5.3,11.9-11.9v-29c0-6.6-5.3-11.9-11.9-11.9c-6.6,0-11.9,5.3-11.9,11.9v29
		C185.7,47.5,191,52.8,197.6,52.8z"/>
	<path fill="#FFE500" d="M386.3,200.9h-29c-6.6,0-11.9,5.3-11.9,11.9c0,6.6,5.3,11.9,11.9,11.9h29c6.6,0,11.9-5.3,11.9-11.9
		C398.2,206.2,392.8,200.9,386.3,200.9z"/>
	<path fill="#FFE500" d="M40.9,200.9h-29c-6.6,0-11.9,5.3-11.9,11.9c0,6.6,5.3,11.9,11.9,11.9h29c6.6,0,11.9-5.3,11.9-11.9
		C52.8,206.2,47.5,200.9,40.9,200.9z"/>
	<path fill="#FFE500" d="M80.5,106.2c3.1,0,6.1-1.2,8.4-3.5c4.7-4.7,4.7-12.2,0-16.9L68.5,65.4c-4.7-4.7-12.2-4.7-16.9,0
		C47,70,47,77.6,51.6,82.2l20.5,20.5C74.4,105,77.5,106.2,80.5,106.2z"/>
	<path fill="#FFE500" d="M329.7,65.4l-20.5,20.5c-4.7,4.7-4.7,12.2,0,16.9c2.3,2.3,5.4,3.5,8.4,3.5c3.1,0,6.1-1.2,8.4-3.5l20.5-20.5
		c4.7-4.7,4.7-12.2,0-16.9C341.9,60.7,334.3,60.7,329.7,65.4z"/>
</g>
<g>
</g>
<g>
</g>
<g>
</g>
<g>
</g>
<g>
</g>
<g>
</g>
</svg>
